<svg width="32" height="32" viewBox="0 0 32 32" fill="none" xmlns="http://www.w3.org/2000/svg">
<path d="M26.9 11.975C26.9 11.478 26.4971 11.075 26 11.075C25.5029 11.075 25.1 11.478 25.1 11.975H26.9ZM17.68 21.8082L17.5292 20.921H17.5292L17.68 21.8082ZM6.65303 8.42945L5.81207 8.10885H5.81207L6.65303 8.42945ZM11.1496 3.25196L11.5853 4.03947L11.1496 3.25196ZM17.9336 2.18827L18.1072 1.30517L17.9336 2.18827ZM23.8057 5.74001L24.4473 6.3712C24.7674 6.04587 24.7933 5.53248 24.5076 5.1766L23.8057 5.74001ZM14.4211 15.279L13.8015 15.9319C14.1575 16.2697 14.7185 16.26 15.0626 15.9102L14.4211 15.279ZM11.0055 10.7972C10.6449 10.455 10.0753 10.4699 9.73312 10.8305C9.39097 11.1911 9.4059 11.7607 9.76646 12.1029L11.0055 10.7972ZM6.52632 28.075L5.67206 27.7917C5.5586 28.1339 5.66022 28.5107 5.93032 28.7494C6.20041 28.9881 6.58687 29.0426 6.91247 28.888L6.52632 28.075ZM10.2105 26.325L11.0227 25.9373C10.8089 25.4893 10.2727 25.2991 9.82438 25.5121L10.2105 26.325ZM11.9649 30L11.1527 30.3877C11.3119 30.7212 11.6588 30.9235 12.0275 30.8978C12.3962 30.8721 12.7117 30.6236 12.8231 30.2712L11.9649 30ZM25.8246 28.075L25.4384 28.888C25.7694 29.0452 26.1626 28.986 26.4327 28.7385C26.7028 28.4909 26.7958 28.1043 26.668 27.761L25.8246 28.075ZM22.1404 26.325L22.5265 25.5121C22.0781 25.2991 21.542 25.4893 21.3282 25.9373L22.1404 26.325ZM20.386 30L19.5314 30.2823C19.6466 30.6312 19.9624 30.875 20.3291 30.8982C20.6959 30.9214 21.0399 30.7193 21.1982 30.3877L20.386 30ZM25.1 11.975C25.1 14.1169 24.3403 16.19 22.9549 17.8274L24.3291 18.99C25.9891 17.028 26.9 14.5431 26.9 11.975H25.1ZM22.9549 17.8274C21.5695 19.4648 19.6476 20.5608 17.5292 20.921L17.8309 22.6955C20.3671 22.2643 22.6691 20.9519 24.3291 18.99L22.9549 17.8274ZM17.5292 20.921C15.4108 21.2811 13.233 20.8819 11.3816 19.7944L10.4699 21.3465C12.6872 22.6489 15.2947 23.1266 17.8309 22.6955L17.5292 20.921ZM11.3816 19.7944C9.5302 18.7069 8.12476 17.0014 7.41346 14.9803L5.71554 15.5778C6.56822 18.0007 8.25259 20.044 10.4699 21.3465L11.3816 19.7944ZM7.41346 14.9803C6.70217 12.9591 6.73069 10.7522 7.49399 8.75005L5.81207 8.10885C4.89704 10.509 4.86284 13.1549 5.71554 15.5778L7.41346 14.9803ZM7.49399 8.75005C8.2573 6.74782 9.70639 5.07901 11.5853 4.03947L10.7139 2.46446C8.46368 3.70943 6.72708 5.70871 5.81207 8.10885L7.49399 8.75005ZM11.5853 4.03947C13.4643 2.9999 15.6516 2.65688 17.76 3.07137L18.1072 1.30517C15.583 0.80894 12.9641 1.21951 10.7139 2.46446L11.5853 4.03947ZM17.76 3.07137C19.8684 3.48585 21.7613 4.63097 23.1039 6.30343L24.5076 5.1766C22.8988 3.1726 20.6315 1.80141 18.1072 1.30517L17.76 3.07137ZM23.1642 5.10883L13.7795 14.6478L15.0626 15.9102L24.4473 6.3712L23.1642 5.10883ZM15.0406 14.6262L11.0055 10.7972L9.76646 12.1029L13.8015 15.9319L15.0406 14.6262ZM8.53048 19.1722L5.67206 27.7917L7.38057 28.3583L10.239 19.7388L8.53048 19.1722ZM6.91247 28.888L10.5967 27.138L9.82438 25.5121L6.14017 27.2621L6.91247 28.888ZM9.39833 26.7127L11.1527 30.3877L12.7771 29.6123L11.0227 25.9373L9.39833 26.7127ZM12.8231 30.2712L15.3965 22.1296L13.6802 21.5871L11.1068 29.7288L12.8231 30.2712ZM21.7718 19.7695L24.9811 28.389L26.668 27.761L23.4587 19.1415L21.7718 19.7695ZM26.2107 27.2621L22.5265 25.5121L21.7542 27.138L25.4384 28.888L26.2107 27.2621ZM21.3282 25.9373L19.5738 29.6123L21.1982 30.3877L22.9525 26.7127L21.3282 25.9373ZM21.2405 29.7177L18.5346 21.5259L16.8254 22.0905L19.5314 30.2823L21.2405 29.7177Z" fill="black"/>
</svg>
